<svg width="14" height="20" viewBox="0 0 14 20" fill="none" xmlns="http://www.w3.org/2000/svg">
<mask id="mask0_146_70" style="mask-type:luminance" maskUnits="userSpaceOnUse" x="0" y="0" width="14" height="20">
<path d="M7 18.5C7 18.5 1 11.5 1 7C1 3.69 3.69 1 7 1C10.31 1 13 3.69 13 7C13 11.5 7 18.5 7 18.5Z" fill="white" stroke="white" stroke-width="2" stroke-linecap="round" stroke-linejoin="round"/>
<path d="M7 9.5C8.38071 9.5 9.5 8.38071 9.5 7C9.5 5.61929 8.38071 4.5 7 4.5C5.61929 4.5 4.5 5.61929 4.5 7C4.5 8.38071 5.61929 9.5 7 9.5Z" fill="black"/>
</mask>
<g mask="url(#mask0_146_70)">
<path d="M19 -2H-5V22H19V-2Z" fill="#007E42"/>
</g>
</svg>
